<svg xmlns="http://www.w3.org/2000/svg" viewBox="0 0 67.6 93.11"><defs><style>.cls-1{fill:#e23434;}.cls-2{fill:#2d2d2d;}.cls-3{fill:#f66;}</style></defs><title>arrow</title><g id="圖層_2" data-name="圖層 2"><g id="OBJECTS"><polygon class="cls-1" points="2.5 2.5 2.5 90.61 26.9 62.47 65.1 64.49 2.5 2.5"/><path class="cls-2" d="M2.5,93.11A2.5,2.5,0,0,1,0,90.61V2.5A2.5,2.5,0,0,1,4.26.72l62.6,62A2.5,2.5,0,0,1,65,67L28,65,4.39,92.25A2.5,2.5,0,0,1,2.5,93.11ZM5,8.49V83.91L25,60.83A2.49,2.49,0,0,1,27,60l31.64,1.68Z"/><polygon class="cls-3" points="5.53 9.97 25.9 59.14 57.07 60.97 5.53 9.97"/></g></g></svg>