<svg xmlns="http://www.w3.org/2000/svg" width="119" height="119" viewBox="0 0 119 119">
  <g id="book" transform="translate(-974 -1559)">
    <g id="Ellipse_19" data-name="Ellipse 19" transform="translate(974 1559)" fill="none" stroke="#707070" stroke-width="2">
      <circle cx="59.5" cy="59.5" r="59.5" stroke="none"/>
      <circle cx="59.5" cy="59.5" r="58.5" fill="none"/>
    </g>
    <path id="Icon_awesome-book-reader" data-name="Icon awesome-book-reader" d="M44.3,12.081A12.081,12.081,0,1,0,32.216,24.162,12.081,12.081,0,0,0,44.3,12.081ZM29.4,30.341C21.93,25.771,9.836,24.515,3.75,24.169A3.482,3.482,0,0,0,0,27.578V55.616a3.461,3.461,0,0,0,3.334,3.4c5.494.288,16.61,1.344,24.293,5.214A1.752,1.752,0,0,0,30.2,62.74V31.784a1.674,1.674,0,0,0-.808-1.442Zm31.286-6.173c-6.085.345-18.18,1.6-25.645,6.173a1.706,1.706,0,0,0-.807,1.464V62.737a1.757,1.757,0,0,0,2.585,1.5c7.682-3.866,18.791-4.922,24.284-5.21a3.463,3.463,0,0,0,3.334-3.405V27.578A3.484,3.484,0,0,0,60.683,24.169Z" transform="translate(1001.283 1586.283)"/>
  </g>
</svg>
