<svg xmlns="http://www.w3.org/2000/svg" xmlns:xlink="http://www.w3.org/1999/xlink" viewBox="0 0 112.67 3060.97"><defs><style>.cls-1{fill:none;}.cls-2{clip-path:url(#clip-path);}.cls-3{fill:#919191;}.cls-4{fill:#fff;}</style><clipPath id="clip-path" transform="translate(-14.17)"><rect class="cls-1" x="-1464.2" y="1473.99" width="3041.4" height="113" transform="translate(-1473.99 1586.99) rotate(-90)"/></clipPath></defs><title>border_5</title><g id="圖層_2" data-name="圖層 2"><g id="圖層_1-2" data-name="圖層 1"><g class="cls-2"><polygon class="cls-3" points="41.63 1789.64 0 1853.21 41.63 1916.78 0 1980.34 41.63 2043.91 0 2107.48 41.63 2171.04 0 2234.61 41.63 2298.18 0 2361.74 41.63 2425.31 0 2488.87 41.63 2552.44 0 2616.01 41.63 2679.57 0 2743.14 41.63 2806.7 0 2870.27 41.63 2933.84 0 2997.4 41.63 3060.97 100.67 3060.97 100.67 9.79 41.63 9.79 0 73.35 41.63 136.92 0 200.49 41.63 264.05 0 327.62 41.63 391.19 0 454.75 41.63 518.32 0 581.88 41.63 645.45 0 709.02 41.63 772.58 0 836.15 41.63 899.72 0 963.28 41.63 1026.85 0 1090.41 41.63 1153.98 0 1217.55 41.63 1281.11 0 1344.68 41.63 1408.25 0 1471.81 41.63 1535.38 0 1598.94 41.63 1662.51 0 1726.08 41.63 1789.64"/><polygon class="cls-4" points="53.63 1779.86 12 1843.42 53.63 1906.99 12 1970.56 53.63 2034.12 12 2097.69 53.63 2161.26 12 2224.82 53.63 2288.39 12 2351.95 53.63 2415.52 12 2479.09 53.63 2542.65 12 2606.22 53.63 2669.79 12 2733.35 53.63 2796.92 12 2860.49 53.63 2924.05 12 2987.62 53.63 3051.18 112.67 3051.18 112.67 0 53.63 0 12 63.57 53.63 127.13 12 190.7 53.63 254.26 12 317.83 53.63 381.4 12 444.96 53.63 508.53 12 572.1 53.63 635.66 12 699.23 53.63 762.8 12 826.36 53.63 889.93 12 953.5 53.63 1017.06 12 1080.63 53.63 1144.19 12 1207.76 53.63 1271.33 12 1334.89 53.63 1398.46 12 1462.03 53.63 1525.59 12 1589.16 53.63 1652.72 12 1716.29 53.63 1779.86"/></g></g></g></svg>