<svg xmlns="http://www.w3.org/2000/svg" xmlns:xlink="http://www.w3.org/1999/xlink" width="74" height="73" viewBox="0 0 74 73">
  <defs>
    <filter id="Rectangle_28" x="0" y="0" width="74" height="73" filterUnits="userSpaceOnUse">
      <feOffset dy="3" input="SourceAlpha"/>
      <feGaussianBlur stdDeviation="3" result="blur"/>
      <feFlood flood-opacity="0.161"/>
      <feComposite operator="in" in2="blur"/>
      <feComposite in="SourceGraphic"/>
    </filter>
  </defs>
  <g id="fb" transform="translate(9 6)">
    <g transform="matrix(1, 0, 0, 1, -9, -6)" filter="url(#Rectangle_28)">
      <g id="Rectangle_28-2" data-name="Rectangle 28" transform="translate(9 6)" fill="#fff" stroke="#707070" stroke-width="3">
        <rect width="56" height="55" rx="27.5" stroke="none"/>
        <rect x="1.5" y="1.5" width="53" height="52" rx="26" fill="none"/>
      </g>
    </g>
    <path id="Icon_awesome-facebook" data-name="Icon awesome-facebook" d="M25.2,12.881a12.319,12.319,0,1,0-14.244,12.17V16.442H7.827V12.881h3.129V10.167c0-3.087,1.838-4.792,4.653-4.792a18.958,18.958,0,0,1,2.758.24v3.03H16.813a1.78,1.78,0,0,0-2.007,1.924v2.312h3.416l-.546,3.561h-2.87v8.609A12.323,12.323,0,0,0,25.2,12.881Z" transform="translate(15.119 14.693)" fill="#170ffe"/>
  </g>
</svg>
