<svg xmlns="http://www.w3.org/2000/svg" width="22.992" height="22.992" viewBox="0 0 22.992 22.992">
  <path id="Icon_awesome-plus" data-name="Icon awesome-plus" d="M21.35,11.283H13.96V3.892A1.643,1.643,0,0,0,12.317,2.25H10.675A1.643,1.643,0,0,0,9.033,3.892v7.39H1.642A1.643,1.643,0,0,0,0,12.925v1.642A1.643,1.643,0,0,0,1.642,16.21h7.39V23.6a1.643,1.643,0,0,0,1.642,1.642h1.642A1.643,1.643,0,0,0,13.96,23.6V16.21h7.39a1.643,1.643,0,0,0,1.642-1.642V12.925A1.643,1.643,0,0,0,21.35,11.283Z" transform="translate(0 -2.25)" fill="#3adde2"/>
</svg>
