<svg xmlns="http://www.w3.org/2000/svg" xmlns:xlink="http://www.w3.org/1999/xlink" width="74" height="73" viewBox="0 0 74 73">
  <defs>
    <filter id="Rectangle_28" x="0" y="0" width="74" height="73" filterUnits="userSpaceOnUse">
      <feOffset dy="3" input="SourceAlpha"/>
      <feGaussianBlur stdDeviation="3" result="blur"/>
      <feFlood flood-opacity="0.161"/>
      <feComposite operator="in" in2="blur"/>
      <feComposite in="SourceGraphic"/>
    </filter>
    <linearGradient id="linear-gradient" x1="1" x2="0" y2="1" gradientUnits="objectBoundingBox">
      <stop offset="0" stop-color="#d405ff"/>
      <stop offset="0.157" stop-color="#ea1879"/>
      <stop offset="0.532" stop-color="#e63131"/>
      <stop offset="0.783" stop-color="#c0ad4b"/>
      <stop offset="1" stop-color="#ffe600"/>
    </linearGradient>
  </defs>
  <g id="ins" transform="translate(-477 -3664)">
    <g transform="matrix(1, 0, 0, 1, 477, 3664)" filter="url(#Rectangle_28)">
      <g id="Rectangle_28-2" data-name="Rectangle 28" transform="translate(9 6)" fill="#fff" stroke="#707070" stroke-width="3">
        <rect width="56" height="55" rx="27.5" stroke="none"/>
        <rect x="1.5" y="1.5" width="53" height="52" rx="26" fill="none"/>
      </g>
    </g>
    <path id="Icon_awesome-instagram" data-name="Icon awesome-instagram" d="M11.127,7.659a5.706,5.706,0,1,0,5.706,5.706A5.7,5.7,0,0,0,11.127,7.659Zm0,9.415a3.71,3.71,0,1,1,3.71-3.71,3.716,3.716,0,0,1-3.71,3.71ZM18.4,7.426A1.331,1.331,0,1,1,17.066,6.1,1.328,1.328,0,0,1,18.4,7.426Zm3.779,1.351a6.586,6.586,0,0,0-1.8-4.663,6.629,6.629,0,0,0-4.663-1.8c-1.837-.1-7.345-.1-9.182,0A6.62,6.62,0,0,0,1.871,4.109a6.608,6.608,0,0,0-1.8,4.663c-.1,1.837-.1,7.345,0,9.182a6.586,6.586,0,0,0,1.8,4.663,6.638,6.638,0,0,0,4.663,1.8c1.837.1,7.345.1,9.182,0a6.586,6.586,0,0,0,4.663-1.8,6.629,6.629,0,0,0,1.8-4.663c.1-1.837.1-7.34,0-9.177ZM19.8,19.925a3.756,3.756,0,0,1-2.116,2.116c-1.465.581-4.941.447-6.56.447s-5.1.129-6.56-.447a3.756,3.756,0,0,1-2.116-2.116C1.871,18.46,2,14.984,2,13.365s-.129-5.1.447-6.56A3.756,3.756,0,0,1,4.567,4.69c1.465-.581,4.941-.447,6.56-.447s5.1-.129,6.56.447A3.756,3.756,0,0,1,19.8,6.805c.581,1.465.447,4.941.447,6.56S20.384,18.465,19.8,19.925Z" transform="translate(502.504 3683.762)" fill="url(#linear-gradient)"/>
  </g>
</svg>
