<svg xmlns="http://www.w3.org/2000/svg" xmlns:xlink="http://www.w3.org/1999/xlink" width="78" height="53.733" viewBox="0 0 78 53.733">
  <defs>
    <radialGradient id="radial-gradient" cx="0.133" cy="1.005" r="1.305" gradientTransform="translate(0)" gradientUnits="objectBoundingBox">
      <stop offset="0.09" stop-color="#fa8f21"/>
      <stop offset="0.78" stop-color="#d82d7e"/>
    </radialGradient>
    <radialGradient id="radial-gradient-2" cx="0.606" cy="1.05" r="1.029" gradientTransform="translate(0)" gradientUnits="objectBoundingBox">
      <stop offset="0.64" stop-color="#8c3aaa" stop-opacity="0"/>
      <stop offset="1" stop-color="#8c3aaa"/>
    </radialGradient>
  </defs>
  <g id="instagram" transform="translate(-896 -1440.267)">
    <text id="Instagram-2" data-name="Instagram" transform="translate(896 1489)" font-size="17" font-family="SegoeUI-Semibold, Segoe UI" font-weight="600"><tspan x="0" y="0">Instagram</tspan></text>
    <g id="instagram-3" data-name="instagram" transform="translate(920.257 1440.267)">
      <path id="Path_49" data-name="Path 49" d="M10.779,16.167a5.389,5.389,0,1,1,5.388,5.389,5.389,5.389,0,0,1-5.388-5.389m-2.913,0a8.3,8.3,0,1,0,8.3-8.3,8.3,8.3,0,0,0-8.3,8.3M22.858,7.536A1.94,1.94,0,1,0,24.8,5.6h0a1.941,1.941,0,0,0-1.94,1.939M9.636,29.326a8.936,8.936,0,0,1-3-.556,5.025,5.025,0,0,1-1.86-1.209A4.988,4.988,0,0,1,3.564,25.7a8.927,8.927,0,0,1-.556-3c-.078-1.7-.094-2.216-.094-6.533s.017-4.828.094-6.533a8.994,8.994,0,0,1,.556-3,5.025,5.025,0,0,1,1.209-1.86,4.983,4.983,0,0,1,1.86-1.209,8.928,8.928,0,0,1,3-.556c1.7-.078,2.216-.094,6.532-.094S21,2.929,22.7,3.006a8.995,8.995,0,0,1,3,.556,5.009,5.009,0,0,1,1.86,1.209,5.009,5.009,0,0,1,1.209,1.86,8.927,8.927,0,0,1,.556,3c.078,1.706.094,2.216.094,6.533s-.016,4.828-.094,6.533a8.969,8.969,0,0,1-.556,3A5.353,5.353,0,0,1,25.7,28.77a8.928,8.928,0,0,1-3,.556c-1.7.078-2.216.094-6.534.094s-4.828-.016-6.532-.094M9.5.1A11.855,11.855,0,0,0,5.578.849,7.93,7.93,0,0,0,2.714,2.714,7.9,7.9,0,0,0,.849,5.577,11.858,11.858,0,0,0,.1,9.5c-.08,1.724-.1,2.275-.1,6.665s.018,4.941.1,6.665a11.857,11.857,0,0,0,.751,3.924A7.9,7.9,0,0,0,2.714,29.62a7.949,7.949,0,0,0,2.864,1.865,11.866,11.866,0,0,0,3.924.751c1.725.078,2.275.1,6.665.1s4.942-.018,6.665-.1a11.858,11.858,0,0,0,3.924-.751,8.266,8.266,0,0,0,4.729-4.729,11.825,11.825,0,0,0,.751-3.924c.078-1.725.1-2.275.1-6.665s-.018-4.941-.1-6.665a11.853,11.853,0,0,0-.751-3.924,7.95,7.95,0,0,0-1.865-2.864A7.911,7.911,0,0,0,26.758.849,11.84,11.84,0,0,0,22.834.1C21.11.02,20.559,0,16.169,0S11.227.018,9.5.1" transform="translate(0 0)" fill="url(#radial-gradient)"/>
      <path id="Path_50" data-name="Path 50" d="M10.779,16.167a5.389,5.389,0,1,1,5.388,5.389,5.389,5.389,0,0,1-5.388-5.389m-2.913,0a8.3,8.3,0,1,0,8.3-8.3,8.3,8.3,0,0,0-8.3,8.3M22.858,7.536A1.94,1.94,0,1,0,24.8,5.6h0a1.941,1.941,0,0,0-1.94,1.939M9.636,29.326a8.936,8.936,0,0,1-3-.556,5.025,5.025,0,0,1-1.86-1.209A4.988,4.988,0,0,1,3.564,25.7a8.927,8.927,0,0,1-.556-3c-.078-1.7-.094-2.216-.094-6.533s.017-4.828.094-6.533a8.994,8.994,0,0,1,.556-3,5.025,5.025,0,0,1,1.209-1.86,4.983,4.983,0,0,1,1.86-1.209,8.928,8.928,0,0,1,3-.556c1.7-.078,2.216-.094,6.532-.094S21,2.929,22.7,3.006a8.995,8.995,0,0,1,3,.556,5.009,5.009,0,0,1,1.86,1.209,5.009,5.009,0,0,1,1.209,1.86,8.927,8.927,0,0,1,.556,3c.078,1.706.094,2.216.094,6.533s-.016,4.828-.094,6.533a8.969,8.969,0,0,1-.556,3A5.353,5.353,0,0,1,25.7,28.77a8.928,8.928,0,0,1-3,.556c-1.7.078-2.216.094-6.534.094s-4.828-.016-6.532-.094M9.5.1A11.855,11.855,0,0,0,5.578.849,7.93,7.93,0,0,0,2.714,2.714,7.9,7.9,0,0,0,.849,5.577,11.858,11.858,0,0,0,.1,9.5c-.08,1.724-.1,2.275-.1,6.665s.018,4.941.1,6.665a11.857,11.857,0,0,0,.751,3.924A7.9,7.9,0,0,0,2.714,29.62a7.949,7.949,0,0,0,2.864,1.865,11.866,11.866,0,0,0,3.924.751c1.725.078,2.275.1,6.665.1s4.942-.018,6.665-.1a11.858,11.858,0,0,0,3.924-.751,8.266,8.266,0,0,0,4.729-4.729,11.825,11.825,0,0,0,.751-3.924c.078-1.725.1-2.275.1-6.665s-.018-4.941-.1-6.665a11.853,11.853,0,0,0-.751-3.924,7.95,7.95,0,0,0-1.865-2.864A7.911,7.911,0,0,0,26.758.849,11.84,11.84,0,0,0,22.834.1C21.11.02,20.559,0,16.169,0S11.227.018,9.5.1" transform="translate(0 0)" fill="url(#radial-gradient-2)"/>
    </g>
  </g>
</svg>
