<svg xmlns="http://www.w3.org/2000/svg" xmlns:xlink="http://www.w3.org/1999/xlink" width="74" height="73" viewBox="0 0 74 73">
  <defs>
    <filter id="Path_10" x="0" y="0" width="74" height="73" filterUnits="userSpaceOnUse">
      <feOffset dy="3" input="SourceAlpha"/>
      <feGaussianBlur stdDeviation="3" result="blur"/>
      <feFlood flood-opacity="0.161"/>
      <feComposite operator="in" in2="blur"/>
      <feComposite in="SourceGraphic"/>
    </filter>
  </defs>
  <g id="line" transform="translate(-477 -3664)">
    <g transform="matrix(1, 0, 0, 1, 477, 3664)" filter="url(#Path_10)">
      <g id="Path_10-2" data-name="Path 10" transform="translate(9 6)" fill="#fff">
        <path d="M 28.5 53.5 L 27.5 53.5 C 23.98936080932617 53.5 20.58452987670898 52.81277084350586 17.38009071350098 51.4574089050293 C 14.28419971466064 50.1479606628418 11.50349998474121 48.2730598449707 9.115220069885254 45.88478088378906 C 6.726940155029297 43.49649810791016 4.852039813995361 40.71580123901367 3.542589902877808 37.61991119384766 C 2.187230110168457 34.41547012329102 1.5 31.01063919067383 1.5 27.5 C 1.5 23.98936080932617 2.187230110168457 20.58452987670898 3.542589902877808 17.38009071350098 C 4.852039813995361 14.28419971466064 6.726940155029297 11.50349998474121 9.115220069885254 9.115220069885254 C 11.50349998474121 6.726940155029297 14.28419971466064 4.852039813995361 17.38009071350098 3.542589902877808 C 20.58452987670898 2.187230110168457 23.98936080932617 1.5 27.5 1.5 L 28.5 1.5 C 32.01063919067383 1.5 35.41547012329102 2.187230110168457 38.61991119384766 3.542589902877808 C 41.71580123901367 4.852039813995361 44.49649810791016 6.726940155029297 46.88478088378906 9.115220069885254 C 49.2730598449707 11.50349998474121 51.1479606628418 14.28419971466064 52.4574089050293 17.38009071350098 C 53.81277084350586 20.58452987670898 54.5 23.98936080932617 54.5 27.5 C 54.5 31.01063919067383 53.81277084350586 34.41547012329102 52.4574089050293 37.61991119384766 C 51.1479606628418 40.71580123901367 49.2730598449707 43.49649810791016 46.88478088378906 45.88478088378906 C 44.49649810791016 48.2730598449707 41.71580123901367 50.1479606628418 38.61991119384766 51.4574089050293 C 35.41547012329102 52.81277084350586 32.01063919067383 53.5 28.5 53.5 Z" stroke="none"/>
        <path d="M 27.5 3 C 24.19120025634766 3 20.98297119140625 3.647361755371094 17.96442031860352 4.924098968505859 C 15.04732894897461 6.157920837402344 12.4268913269043 7.924880981445313 10.17588043212891 10.17588043212891 C 7.924880981445313 12.4268913269043 6.157920837402344 15.04732894897461 4.924098968505859 17.96442031860352 C 3.647361755371094 20.98297119140625 3 24.19120025634766 3 27.5 C 3 30.80879974365234 3.647361755371094 34.01702880859375 4.924098968505859 37.03557968139648 C 6.157920837402344 39.95267105102539 7.924880981445313 42.5731086730957 10.17588043212891 44.82411956787109 C 12.4268913269043 47.07511901855469 15.04732894897461 48.84207916259766 17.96442031860352 50.07590103149414 C 20.98297119140625 51.35263824462891 24.19120025634766 52 27.5 52 L 28.5 52 C 31.80879974365234 52 35.01702880859375 51.35263824462891 38.03557968139648 50.07590103149414 C 40.95267105102539 48.84207916259766 43.5731086730957 47.07511901855469 45.82411956787109 44.82411956787109 C 48.07511901855469 42.5731086730957 49.84207916259766 39.95267105102539 51.07590103149414 37.03557968139648 C 52.35263824462891 34.01702880859375 53 30.80879974365234 53 27.5 C 53 24.19120025634766 52.35263824462891 20.98297119140625 51.07590103149414 17.96442031860352 C 49.84207916259766 15.04732894897461 48.07511901855469 12.4268913269043 45.82411956787109 10.17588043212891 C 43.5731086730957 7.924880981445313 40.95267105102539 6.157920837402344 38.03557968139648 4.924098968505859 C 35.01702880859375 3.647361755371094 31.80879974365234 3 28.5 3 L 27.5 3 M 27.5 0 L 28.5 0 C 43.68782806396484 0 56 12.31216812133789 56 27.5 C 56 42.68782806396484 43.68782806396484 55 28.5 55 L 27.5 55 C 12.31216812133789 55 0 42.68782806396484 0 27.5 C 0 12.31216812133789 12.31216812133789 0 27.5 0 Z" stroke="none" fill="#707070"/>
      </g>
    </g>
    <path id="Icon_simple-line" data-name="Icon simple-line" d="M21.369,11.11a.7.7,0,0,1,0,1.391H19.432v1.241h1.937a.695.695,0,1,1,0,1.389H18.736a.7.7,0,0,1-.692-.694V9.174a.7.7,0,0,1,.7-.7h2.633a.7.7,0,0,1,0,1.39H19.432V11.11h1.937Zm-4.254,3.328a.7.7,0,0,1-.477.658.713.713,0,0,1-.22.034.682.682,0,0,1-.563-.276l-2.7-3.66v3.244a.694.694,0,1,1-1.387,0V9.174a.692.692,0,0,1,.474-.657.642.642,0,0,1,.214-.036.714.714,0,0,1,.546.28l2.717,3.675V9.174a.7.7,0,0,1,1.39,0v5.265Zm-6.335,0a.694.694,0,1,1-1.388,0V9.174a.694.694,0,1,1,1.388,0Zm-2.721.694H5.426a.7.7,0,0,1-.7-.694V9.174a.7.7,0,0,1,1.39,0v4.569H8.059a.695.695,0,0,1,0,1.389m18.425-3.524c0-5.927-5.942-10.75-13.242-10.75S0,5.681,0,11.608c0,5.309,4.712,9.757,11.073,10.6.431.09,1.018.285,1.167.651a2.7,2.7,0,0,1,.042,1.192L12.1,25.178c-.05.332-.265,1.309,1.158.712s7.632-4.5,10.412-7.7a9.515,9.515,0,0,0,2.812-6.585" transform="translate(500.605 3685.321)" fill="#5eff00"/>
  </g>
</svg>
