<svg xmlns="http://www.w3.org/2000/svg" width="35.382" height="56.382" viewBox="0 0 35.382 56.382">
  <g id="linemark" transform="translate(-494.796 -1436.618)">
    <text id="Line" transform="translate(497 1489)" font-size="17" font-family="SegoeUI-Semibold, Segoe UI" font-weight="600"><tspan x="0" y="0">Line</tspan></text>
    <path id="Icon_simple-line" data-name="Icon simple-line" d="M28.549,14.555a.93.93,0,0,1,0,1.859H25.962v1.659h2.587a.928.928,0,1,1,0,1.856H25.032A.93.93,0,0,1,24.107,19V11.968a.932.932,0,0,1,.929-.929h3.518a.929.929,0,0,1,0,1.858H25.962v1.659h2.587ZM22.866,19a.928.928,0,0,1-.637.879.952.952,0,0,1-.293.046.912.912,0,0,1-.752-.369l-3.6-4.89V19a.927.927,0,1,1-1.853,0V11.968a.924.924,0,0,1,.634-.877.858.858,0,0,1,.286-.049.953.953,0,0,1,.73.374l3.63,4.909V11.968a.929.929,0,1,1,1.858,0ZM14.4,19a.927.927,0,1,1-1.855,0V11.968a.927.927,0,1,1,1.855,0Zm-3.636.927H7.249A.934.934,0,0,1,6.32,19V11.968a.929.929,0,1,1,1.858,0v6.1h2.589a.928.928,0,0,1,0,1.856M35.382,15.22C35.382,7.3,27.443.858,17.691.858S0,7.3,0,15.22c0,7.093,6.3,13.035,14.794,14.165.576.121,1.361.38,1.56.87a3.6,3.6,0,0,1,.056,1.592l-.242,1.5c-.066.444-.354,1.748,1.547.951s10.2-6.012,13.911-10.283a12.712,12.712,0,0,0,3.756-8.8" transform="translate(494.796 1435.76)" fill="#0dc900"/>
  </g>
</svg>
