<svg xmlns="http://www.w3.org/2000/svg" width="23.467" height="19.689" viewBox="0 0 23.467 19.689">
  <g id="menu_change" data-name="menu change" transform="translate(-4.5 -7.125)">
    <path id="Path_13" data-name="Path 13" d="M26.989,12.081H5.478A.981.981,0,0,1,4.5,11.1h0a.981.981,0,0,1,.978-.978H26.989a.981.981,0,0,1,.978.978h0A.981.981,0,0,1,26.989,12.081Z" transform="translate(0 -3)" fill="#fff"/>
    <path id="Path_15" data-name="Path 15" d="M26.989,25.581H5.478A.981.981,0,0,1,4.5,24.6h0a.981.981,0,0,1,.978-.978H26.989a.981.981,0,0,1,.978.978h0A.981.981,0,0,1,26.989,25.581Z" transform="translate(0 1.233)" fill="#fff"/>
    <text id="MENU" transform="translate(15.967 20)" fill="#fff" font-size="8.5" font-family="RobotoMono-Medium, Roboto Mono" font-weight="500"><tspan x="-10.202" y="0">MENU</tspan></text>
  </g>
</svg>
