<svg xmlns="http://www.w3.org/2000/svg" width="23.467" height="13.689" viewBox="0 0 23.467 13.689">
  <g id="menu" transform="translate(-4.5 -10.125)">
    <path id="Path_13" data-name="Path 13" d="M26.989,12.081H5.478A.981.981,0,0,1,4.5,11.1h0a.981.981,0,0,1,.978-.978H26.989a.981.981,0,0,1,.978.978h0A.981.981,0,0,1,26.989,12.081Z" transform="translate(0)" fill="#fff"/>
    <path id="Path_14" data-name="Path 14" d="M26.989,18.831H5.478a.981.981,0,0,1-.978-.978h0a.981.981,0,0,1,.978-.978H26.989a.981.981,0,0,1,.978.978h0A.981.981,0,0,1,26.989,18.831Z" transform="translate(0 -0.883)" fill="#fff"/>
    <path id="Path_15" data-name="Path 15" d="M26.989,25.581H5.478A.981.981,0,0,1,4.5,24.6h0a.981.981,0,0,1,.978-.978H26.989a.981.981,0,0,1,.978.978h0A.981.981,0,0,1,26.989,25.581Z" transform="translate(0 -1.767)" fill="#fff"/>
  </g>
</svg>
