<svg xmlns="http://www.w3.org/2000/svg" xmlns:xlink="http://www.w3.org/1999/xlink" width="33.6" height="1002.4" viewBox="0 0 33.6 1002.4">
  <defs>
    <clipPath id="clip-path">
      <rect id="Rectangle_89" data-name="Rectangle 89" width="33.358" height="992.4" fill="none"/>
    </clipPath>
  </defs>
  <g id="p2裝飾" transform="translate(0.242 -800)">
    <rect id="Rectangle_3" data-name="Rectangle 3" width="32" height="995" transform="translate(-0.242 800)"/>
    <g id="Repeat_Grid_1" data-name="Repeat Grid 1" transform="translate(0 810)" clip-path="url(#clip-path)">
      <g id="Group_33" data-name="Group 33">
        <path id="Path_1" data-name="Path 1" d="M0,33.84,49.226,0V33.84L0,68.4Z" fill="#ffdf00"/>
      </g>
      <g id="Group_34" data-name="Group 34" transform="translate(0 89)">
        <path id="Path_1-2" data-name="Path 1" d="M0,33.84,49.226,0V33.84L0,68.4Z" fill="#ffdf00"/>
      </g>
      <g id="Group_35" data-name="Group 35" transform="translate(0 178)">
        <path id="Path_1-3" data-name="Path 1" d="M0,33.84,49.226,0V33.84L0,68.4Z" fill="#ffdf00"/>
      </g>
      <g id="Group_36" data-name="Group 36" transform="translate(0 267)">
        <path id="Path_1-4" data-name="Path 1" d="M0,33.84,49.226,0V33.84L0,68.4Z" fill="#ffdf00"/>
      </g>
      <g id="Group_37" data-name="Group 37" transform="translate(0 356)">
        <path id="Path_1-5" data-name="Path 1" d="M0,33.84,49.226,0V33.84L0,68.4Z" fill="#ffdf00"/>
      </g>
      <g id="Group_38" data-name="Group 38" transform="translate(0 445)">
        <path id="Path_1-6" data-name="Path 1" d="M0,33.84,49.226,0V33.84L0,68.4Z" fill="#ffdf00"/>
      </g>
      <g id="Group_39" data-name="Group 39" transform="translate(0 534)">
        <path id="Path_1-7" data-name="Path 1" d="M0,33.84,49.226,0V33.84L0,68.4Z" fill="#ffdf00"/>
      </g>
      <g id="Group_40" data-name="Group 40" transform="translate(0 623)">
        <path id="Path_1-8" data-name="Path 1" d="M0,33.84,49.226,0V33.84L0,68.4Z" fill="#ffdf00"/>
      </g>
      <g id="Group_41" data-name="Group 41" transform="translate(0 712)">
        <path id="Path_1-9" data-name="Path 1" d="M0,33.84,49.226,0V33.84L0,68.4Z" fill="#ffdf00"/>
      </g>
      <g id="Group_42" data-name="Group 42" transform="translate(0 801)">
        <path id="Path_1-10" data-name="Path 1" d="M0,33.84,49.226,0V33.84L0,68.4Z" fill="#ffdf00"/>
      </g>
      <g id="Group_43" data-name="Group 43" transform="translate(0 890)">
        <path id="Path_1-11" data-name="Path 1" d="M0,33.84,49.226,0V33.84L0,68.4Z" fill="#ffdf00"/>
      </g>
      <g id="Group_44" data-name="Group 44" transform="translate(0 979)">
        <path id="Path_1-12" data-name="Path 1" d="M0,33.84,49.226,0V33.84L0,68.4Z" fill="#ffdf00"/>
      </g>
    </g>
  </g>
</svg>
