<svg xmlns="http://www.w3.org/2000/svg" width="214" height="214" viewBox="0 0 214 214">
  <g id="step1pic" transform="translate(-971 -1532)">
    <circle id="Ellipse_12" data-name="Ellipse 12" cx="107" cy="107" r="107" transform="translate(971 1532)" fill="#e1e1e1"/>
    <g id="Group_12" data-name="Group 12" transform="translate(652.639 945.879)">
      <g id="Group_11" data-name="Group 11" transform="translate(352.3 654.954)">
        <path id="Path_21" data-name="Path 21" d="M486.7,696.65c-3.191-6.15-8.492-9.118-14.75-10.414a34.37,34.37,0,0,0-14.96.32l-11,2.635a54.753,54.753,0,0,1-25.513,0l-11-2.635a34.373,34.373,0,0,0-14.961-.32c-6.259,1.3-11.559,4.264-14.75,10.414-13.178,25.4-32.164,61.034-7.934,64.558,32.8,4.77,33.484-16.368,36.764-29.485h49.271c3.28,13.117,3.964,34.255,36.764,29.485C518.868,757.684,499.882,722.055,486.7,696.65Z" transform="translate(-360.177 -685.562)" fill="#ffb200"/>
        <circle id="Ellipse_8" data-name="Ellipse 8" cx="13.068" cy="13.068" r="13.068" transform="matrix(0.383, -0.924, 0.924, 0.383, 14.531, 35.693)" fill="#506c82"/>
        <g id="Group_8" data-name="Group 8" transform="translate(22.966 19.981)">
          <g id="Group_6" data-name="Group 6" transform="translate(5.911)">
            <path id="Path_22" data-name="Path 22" d="M405.682,713.274h-5.457v5l2.729,1.534,2.729-1.534Z" transform="translate(-400.225 -713.274)" fill="#fffffa"/>
            <path id="Path_23" data-name="Path 23" d="M400.225,734.71h5.457v-5l-2.729-1.534-2.729,1.534Z" transform="translate(-400.225 -717.432)" fill="#fffffa"/>
          </g>
          <g id="Group_7" data-name="Group 7" transform="translate(0 5.911)">
            <path id="Path_24" data-name="Path 24" d="M392.028,721.471v5.457h5l1.534-2.729-1.534-2.729Z" transform="translate(-392.028 -721.471)" fill="#fffffa"/>
            <path id="Path_25" data-name="Path 25" d="M413.464,726.928v-5.457h-5l-1.534,2.729,1.534,2.729Z" transform="translate(-396.186 -721.471)" fill="#fffffa"/>
          </g>
        </g>
        <g id="Group_9" data-name="Group 9" transform="translate(108.92 14.545)">
          <path id="Path_26" data-name="Path 26" d="M519.938,710.085a4.351,4.351,0,1,0-4.351,4.352A4.35,4.35,0,0,0,519.938,710.085Z" transform="translate(-511.236 -705.734)" fill="#506c82"/>
          <path id="Path_27" data-name="Path 27" d="M519.938,735.66a4.351,4.351,0,1,0-4.351,4.352A4.351,4.351,0,0,0,519.938,735.66Z" transform="translate(-511.236 -712.868)" fill="#506c82"/>
        </g>
        <g id="Group_10" data-name="Group 10" transform="translate(99.699 23.765)">
          <path id="Path_28" data-name="Path 28" d="M502.8,718.522a4.351,4.351,0,1,0,4.352,4.351A4.351,4.351,0,0,0,502.8,718.522Z" transform="translate(-498.448 -718.522)" fill="#fffffa"/>
          <path id="Path_29" data-name="Path 29" d="M528.375,718.522a4.351,4.351,0,1,0,4.351,4.351A4.351,4.351,0,0,0,528.375,718.522Z" transform="translate(-505.583 -718.522)" fill="#fffffa"/>
        </g>
        <rect id="Rectangle_39" data-name="Rectangle 39" width="12.248" height="4.248" transform="translate(55.464 36.206)" fill="#506c82"/>
        <rect id="Rectangle_40" data-name="Rectangle 40" width="12.248" height="4.248" transform="translate(74.803 36.206)" fill="#506c82"/>
      </g>
    </g>
  </g>
</svg>
