<svg xmlns="http://www.w3.org/2000/svg" width="214" height="214" viewBox="0 0 214 214">
  <g id="step4pic" transform="translate(-681 -2083)">
    <circle id="Ellipse_16" data-name="Ellipse 16" cx="107" cy="107" r="107" transform="translate(681 2083)" fill="#e1e1e1"/>
    <g id="Group_16" data-name="Group 16" transform="translate(324.802 1963.726)">
      <g id="Group_13" data-name="Group 13" transform="translate(410.693 157.098)">
        <path id="Path_30" data-name="Path 30" d="M517.936,237.669a6.131,6.131,0,0,0-5.986-4.805H416.324a6.129,6.129,0,0,0-5.4,3.217l53.841,43.332Z" transform="translate(-410.928 -183.408)" fill="#3b586d"/>
        <path id="Path_31" data-name="Path 31" d="M464.432,211.741l53.209-1.971-53.209-52.382V157.1l-.148.145-.148-.145v.291L410.928,209.77l53.209,1.971v.011l.148-.005.148.005Z" transform="translate(-410.928 -157.098)" fill="#3b586d"/>
      </g>
      <rect id="Rectangle_41" data-name="Rectangle 41" width="83.963" height="80.8" transform="translate(422.216 184.425)" fill="#fffff9"/>
      <g id="Group_14" data-name="Group 14" transform="translate(436.712 200.748)">
        <rect id="Rectangle_42" data-name="Rectangle 42" width="54.972" height="3.489" fill="#3b586d"/>
        <rect id="Rectangle_43" data-name="Rectangle 43" width="54.972" height="3.489" transform="translate(0 12.939)" fill="#3b586d"/>
      </g>
      <g id="Group_15" data-name="Group 15" transform="translate(410.253 209.77)">
        <path id="Path_32" data-name="Path 32" d="M464.83,271.117l-53.841-33.325a6.1,6.1,0,0,0-.736,2.914v60.636a6.114,6.114,0,0,0,1.819,4.358h0Z" transform="translate(-410.253 -237.792)" fill="#e75c25"/>
        <path id="Path_33" data-name="Path 33" d="M413.04,323.392h0a6.111,6.111,0,0,0,4.312,1.773h95.627a6.108,6.108,0,0,0,4.311-1.773L465.8,288.738Z" transform="translate(-411.221 -255.483)" fill="#b63d17"/>
        <path id="Path_34" data-name="Path 34" d="M547.033,240.226l-53.168,31.736,51.493,34.584a6.112,6.112,0,0,0,1.82-4.358V241.551A6.156,6.156,0,0,0,547.033,240.226Z" transform="translate(-439.288 -238.637)" fill="#e75c25"/>
      </g>
    </g>
  </g>
</svg>
