<svg xmlns="http://www.w3.org/2000/svg" xmlns:xlink="http://www.w3.org/1999/xlink" width="197" height="129.85" viewBox="0 0 197 129.85">
  <defs>
    <filter id="talk2" x="0" y="0" width="197" height="129.85" filterUnits="userSpaceOnUse">
      <feOffset dy="3" input="SourceAlpha"/>
      <feGaussianBlur stdDeviation="3" result="blur"/>
      <feFlood flood-opacity="0.161"/>
      <feComposite operator="in" in2="blur"/>
      <feComposite in="SourceGraphic"/>
    </filter>
  </defs>
  <g transform="matrix(1, 0, 0, 1, 0, 0)" filter="url(#talk2)">
    <g id="talk2-2" data-name="talk2" transform="translate(188 117.85) rotate(180)" fill="#ff4b75">
      <path d="M 128.7395935058594 110.3501968383789 L 50.25960159301758 110.3501968383789 C 43.67660140991211 110.3501968383789 37.29124450683594 109.0612182617188 31.28093528747559 106.5190811157227 C 25.47486305236816 104.0633163452148 20.26012420654297 100.54736328125 15.78162479400635 96.06890869140625 C 11.30307674407959 91.59040832519531 7.78705358505249 86.37572479248047 5.331243991851807 80.56964874267578 C 2.789029598236084 74.55926513671875 1.500005841255188 68.17378997802734 1.500005841255188 61.59060287475586 C 1.500005841255188 55.00741195678711 2.789029598236084 48.6219367980957 5.331243991851807 42.61155319213867 C 7.78705358505249 36.80548477172852 11.30307674407959 31.59079360961914 15.78162479400635 27.1122932434082 C 20.26012420654297 22.63384056091309 25.47486305236816 19.11788749694824 31.28093528747559 16.6621265411377 C 37.29124450683594 14.11998271942139 43.67660140991211 12.83100700378418 50.25960159301758 12.83100700378418 L 128.7395935058594 12.83100700378418 C 131.9319305419922 12.83100700378418 135.1245269775391 13.14138793945313 138.2287139892578 13.75350666046143 L 138.8131561279297 13.86874485015869 L 139.3174133300781 13.55165004730225 L 155.5713195800781 3.330574750900269 L 151.7165832519531 17.2529354095459 L 151.40185546875 18.38965034484863 L 152.4322662353516 18.96360206604004 C 159.8989105224609 23.12274551391602 166.1724548339844 29.19650650024414 170.5746765136719 36.52827072143555 C 172.7999572753906 40.2343864440918 174.5197143554688 44.21776962280273 175.6862182617188 48.36774444580078 C 176.8898162841797 52.6497917175293 177.5001068115234 57.09860229492188 177.5001068115234 61.59060287475586 C 177.5001068115234 68.17378997802734 176.2110748291016 74.55926513671875 173.6688385009766 80.56964874267578 C 171.2130126953125 86.37572479248047 167.6969757080078 91.59043884277344 163.2183837890625 96.06890869140625 C 158.7398223876953 100.54736328125 153.5250091552734 104.0633163452148 147.7188110351563 106.5190582275391 C 141.7083587646484 109.0612182617188 135.3228454589844 110.3501968383789 128.7395935058594 110.3501968383789 Z" stroke="none"/>
      <path d="M 128.7396087646484 108.8502044677734 C 135.1210021972656 108.8502044677734 141.3099212646484 107.60107421875 147.1345062255859 105.1375503540039 C 152.7618713378906 102.7574310302734 157.8164215087891 99.34942626953125 162.1577301025391 95.00822448730469 C 166.4990539550781 90.66703033447266 169.9071350097656 85.61257934570313 172.2873229980469 79.98530578613281 C 174.7509460449219 74.16082763671875 176.0001068115234 67.97195434570313 176.0001068115234 61.59060287475586 C 176.0001068115234 57.2358283996582 175.4086608886719 52.92357635498047 174.2421722412109 48.77365112304688 C 173.1118011474609 44.75220108032227 171.4452209472656 40.89205169677734 169.2886810302734 37.3004264831543 C 165.0213317871094 30.19330215454102 158.9400787353516 24.30567741394043 151.7023010253906 20.27402687072754 L 149.6415100097656 19.12610244750977 L 150.2709503173828 16.85270309448242 L 153.0927429199219 6.661109447479248 L 140.1159057617188 14.82145214080811 L 139.1073608398438 15.4556770324707 L 137.9385070800781 15.22517681121826 C 134.9296722412109 14.63185214996338 131.8347320556641 14.3310022354126 128.7396087646484 14.3310022354126 L 50.25960159301758 14.3310022354126 C 43.8784294128418 14.3310022354126 37.68967819213867 15.58010196685791 31.86525344848633 18.04362678527832 C 26.23797798156738 20.42377662658691 21.18352890014648 23.83177757263184 16.84227752685547 28.17295265197754 C 12.50100326538086 32.51417541503906 9.092927932739258 37.56862640380859 6.712753295898438 43.19590377807617 C 4.249153614044189 49.02037811279297 3.000003337860107 55.20925140380859 3.000003337860107 61.59060287475586 C 3.000003337860107 67.97195434570313 4.249153614044189 74.16082763671875 6.712753295898438 79.98530578613281 C 9.092927932739258 85.61257934570313 12.50100326538086 90.66703033447266 16.84227752685547 95.00825500488281 C 21.18352890014648 99.34942626953125 26.23797798156738 102.7574310302734 31.86525344848633 105.137580871582 C 37.68967819213867 107.6011047363281 43.8784294128418 108.8502044677734 50.25960159301758 108.8502044677734 L 128.7396087646484 108.8502044677734 M 128.7396087646484 111.8502044677734 L 50.25960159301758 111.8502044677734 C 22.5027027130127 111.8502044677734 3.405761617614189e-06 89.34840393066406 3.405761617614189e-06 61.59060287475586 C 3.405761617614189e-06 33.83280181884766 22.5027027130127 11.3310022354126 50.25960159301758 11.3310022354126 L 128.7396087646484 11.3310022354126 C 132.0856475830078 11.3310022354126 135.3558044433594 11.65810203552246 138.5189056396484 12.28185176849365 L 158.0498962402344 2.233886789326789e-06 L 153.1621856689453 17.65320205688477 C 168.5742492675781 26.23815155029297 179.0001068115234 42.69687652587891 179.0001068115234 61.59060287475586 C 179.0001068115234 89.34840393066406 156.4974060058594 111.8502044677734 128.7396087646484 111.8502044677734 Z" stroke="none" fill="#262626"/>
    </g>
  </g>
</svg>
