<svg xmlns="http://www.w3.org/2000/svg" xmlns:xlink="http://www.w3.org/1999/xlink" width="188.5" height="138.933" viewBox="0 0 188.5 138.933">
  <defs>
    <filter id="talk5" x="0" y="0" width="188.5" height="138.933" filterUnits="userSpaceOnUse">
      <feOffset dy="3" input="SourceAlpha"/>
      <feGaussianBlur stdDeviation="3" result="blur"/>
      <feFlood flood-opacity="0.161"/>
      <feComposite operator="in" in2="blur"/>
      <feComposite in="SourceGraphic"/>
    </filter>
  </defs>
  <g transform="matrix(1, 0, 0, 1, 0, 0)" filter="url(#talk5)">
    <g id="talk5-2" data-name="talk5" transform="translate(179.5 126.93) rotate(180)" fill="#ff4b75">
      <path d="M 148.1308898925781 117.3669815063477 L 131.5178985595703 105.5085296630859 L 130.9362487792969 105.0933685302734 L 130.2474212646484 105.2834548950195 C 125.6816177368164 106.5433654785156 120.9414138793945 107.1822052001953 116.1585083007813 107.1822052001953 L 54.34109878540039 107.1822052001953 C 47.20702743530273 107.1822052001953 40.2871208190918 105.7853012084961 33.77357482910156 103.0302505493164 C 27.48150634765625 100.3688888549805 21.83027839660645 96.55861663818359 16.97693824768066 91.70527648925781 C 12.12359714508057 86.85191345214844 8.313323974609375 81.20070648193359 5.651960849761963 74.90861511230469 C 2.896915197372437 68.39507293701172 1.500006198883057 61.47516250610352 1.500006198883057 54.34109497070313 C 1.500006198883057 47.20682144165039 2.896915197372437 40.28677749633789 5.651960849761963 33.77318572998047 C 8.313302040100098 27.48109436035156 12.12357425689697 21.82991218566895 16.97693824768066 16.97659492492676 C 21.83025550842285 12.12334442138672 27.48146057128906 8.313139915466309 33.77357482910156 5.651821136474609 C 40.28707504272461 2.896889448165894 47.20700454711914 1.500003099441528 54.34109878540039 1.500003099441528 L 116.1585083007813 1.500003099441528 C 123.292594909668 1.500003099441528 130.2125244140625 2.896889448165894 136.7260589599609 5.651821136474609 C 143.0181427001953 8.313139915466309 148.6693420410156 12.12334442138672 153.5226593017578 16.97659492492676 C 158.3760223388672 21.82991218566895 162.1862945556641 27.48109436035156 164.8476409912109 33.77318572998047 C 167.6026916503906 40.28677749633789 168.9996032714844 47.20682144165039 168.9996032714844 54.34109497070313 C 168.9996032714844 58.92341232299805 168.4126434326172 63.47150421142578 167.2550354003906 67.85904693603516 C 166.1320037841797 72.11552429199219 164.471435546875 76.22650146484375 162.3194122314453 80.07777404785156 C 158.0821380615234 87.660888671875 151.9738922119141 94.15134429931641 144.655029296875 98.84748077392578 L 143.7541198730469 99.42552947998047 L 144.0077972412109 100.4654312133789 L 148.1308898925781 117.3669815063477 Z" stroke="none"/>
      <path d="M 145.7170104980469 113.8010177612305 L 142.5505676269531 100.820930480957 L 142.0431823730469 98.74111938476563 L 143.844970703125 97.58500671386719 C 150.9570159912109 93.02159881591797 156.8925933837891 86.71466827392578 161.0099945068359 79.34609985351563 C 163.1006164550781 75.60472106933594 164.7137603759766 71.61116790771484 165.8046875 67.47640991210938 C 166.9293518066406 63.21366882324219 167.4996185302734 58.7943115234375 167.4996185302734 54.34109878540039 C 167.4996185302734 47.40866851806641 166.1425628662109 40.68521881103516 163.4661560058594 34.35752868652344 C 160.8804168701172 28.24421691894531 157.1781158447266 22.7533130645752 152.4620361328125 18.03726577758789 C 147.7459716796875 13.3212890625 142.2550354003906 9.619027137756348 136.1417236328125 7.033336639404297 C 129.8140869140625 4.357003211975098 123.0907516479492 3.000003099441528 116.1584930419922 3.000003099441528 L 54.34111022949219 3.000003099441528 C 47.40884780883789 3.000003099441528 40.68551635742188 4.357003211975098 34.3578987121582 7.033336639404297 C 28.24458694458008 9.619027137756348 22.75363540649414 13.3212890625 18.03758811950684 18.03726577758789 C 13.32149219512939 22.7533130645752 9.619182586669922 28.24421691894531 7.033444404602051 34.35752868652344 C 4.357039928436279 40.68521881103516 2.99999213218689 47.40866851806641 2.99999213218689 54.34109878540039 C 2.99999213218689 61.27333831787109 4.357039928436279 67.99664306640625 7.033444404602051 74.32428741455078 C 9.619182586669922 80.43757629394531 13.3215160369873 85.92852783203125 18.03758811950684 90.64462280273438 C 22.75368309020996 95.36069488525391 28.2446346282959 99.06302642822266 34.3579216003418 101.6487655639648 C 40.68556213378906 104.3251724243164 47.40887451171875 105.6822204589844 54.34111022949219 105.6822204589844 L 116.1584930419922 105.6822204589844 C 120.8065185546875 105.6822204589844 125.412467956543 105.0615539550781 129.8484191894531 103.8374786376953 L 131.2261047363281 103.4573135375977 L 132.3893432617188 104.2876434326172 L 145.7170104980469 113.8010177612305 M 150.5447998046875 120.9330062866211 L 130.6464233398438 106.7294082641602 C 126.0339431762695 108.002197265625 121.1756591796875 108.6822204589844 116.1584930419922 108.6822204589844 L 54.34111022949219 108.6822204589844 C 24.3297061920166 108.6822204589844 -7.888067557360046e-06 84.35250091552734 -7.888067557360046e-06 54.34109878540039 C -7.888067557360046e-06 24.32881355285645 24.3297061920166 3.143310550512979e-06 54.34111022949219 3.143310550512979e-06 L 116.1584930419922 3.143310550512979e-06 C 146.169921875 3.143310550512979e-06 170.4996185302734 24.32881355285645 170.4996185302734 54.34109878540039 C 170.4996185302734 73.55983734130859 160.5224914550781 90.44841003417969 145.465087890625 100.1099319458008 L 150.5447998046875 120.9330062866211 Z" stroke="none" fill="#262626"/>
    </g>
  </g>
</svg>
