<svg xmlns="http://www.w3.org/2000/svg" xmlns:xlink="http://www.w3.org/1999/xlink" width="190.119" height="135.442" viewBox="0 0 190.119 135.442">
  <defs>
    <filter id="talk6" x="0" y="0" width="190.119" height="135.442" filterUnits="userSpaceOnUse">
      <feOffset dy="3" input="SourceAlpha"/>
      <feGaussianBlur stdDeviation="3" result="blur"/>
      <feFlood flood-opacity="0.161"/>
      <feComposite operator="in" in2="blur"/>
      <feComposite in="SourceGraphic"/>
    </filter>
  </defs>
  <g transform="matrix(1, 0, 0, 1, 0, 0)" filter="url(#talk6)">
    <g id="talk6-2" data-name="talk6" transform="translate(9 6)" fill="#ff4b75">
      <path d="M 149.5416564941406 113.9520721435547 L 133.1605834960938 102.7035675048828 L 132.6015777587891 102.3197021484375 L 131.944091796875 102.4857940673828 C 127.8490524291992 103.5202713012695 123.6102600097656 104.044792175293 119.3454208374023 104.044792175293 L 52.77239608764648 104.044792175293 C 45.85016632080078 104.044792175293 39.13573455810547 102.6893844604492 32.81562042236328 100.0162048339844 C 26.7103271484375 97.43388366699219 21.22689437866211 93.73674774169922 16.51759910583496 89.02751922607422 C 11.80828094482422 84.31826782226563 8.111099243164063 78.8348388671875 5.528735637664795 72.72954559326172 C 2.855462789535522 66.40936279296875 1.500008106231689 59.69481658935547 1.500008106231689 52.77240753173828 C 1.500008106231689 45.84999465942383 2.855462789535522 39.13542938232422 5.528735637664795 32.81524658203125 C 8.111099243164063 26.70995140075684 11.80828094482422 21.22651863098145 16.51759910583496 16.51726913452148 C 21.22689437866211 11.8080415725708 26.7103271484375 8.110905647277832 32.81562042236328 5.528587341308594 C 39.13573455810547 2.855405569076538 45.85016632080078 1.499996542930603 52.77239608764648 1.499996542930603 L 119.3454208374023 1.499996542930603 C 126.2678680419922 1.499996542930603 132.9824829101563 2.855405569076538 139.3027191162109 5.528587341308594 C 145.4081268310547 8.110905647277832 150.8916625976563 11.8080415725708 155.6010131835938 16.51726913452148 C 160.3103485107422 21.22651863098145 164.0075836181641 26.70995140075684 166.5899658203125 32.81524658203125 C 169.2632293701172 39.13542938232422 170.6186828613281 45.8499755859375 170.6186828613281 52.77240753173828 C 170.6186828613281 57.30154037475586 170.028076171875 61.79390716552734 168.86328125 66.12474822998047 C 167.7336273193359 70.324951171875 166.0646667480469 74.37419891357422 163.9027557373047 78.16004180908203 C 159.6402130126953 85.62442779541016 153.5159454345703 91.95361328125 146.1920013427734 96.46338653564453 L 145.253662109375 97.04117584228516 L 145.5245361328125 98.10933685302734 L 149.5416564941406 113.9520721435547 Z" stroke="none"/>
      <path d="M 147.1092529296875 110.4621963500977 L 144.0705108642578 98.47799682617188 L 143.5288238525391 96.34166717529297 L 145.405517578125 95.18609619140625 C 152.5160675048828 90.80771636962891 158.4618988037109 84.66300201416016 162.6001892089844 77.41621398925781 C 164.6985321044922 73.74166870117188 166.3183898925781 69.81159210205078 167.4147796630859 65.73516845703125 C 168.5454254150391 61.53133392333984 169.1187133789063 57.17002105712891 169.1187133789063 52.77240371704102 C 169.1187133789063 46.05183029174805 167.8031158447266 39.53387832641602 165.2084655761719 33.39959335327148 C 162.7017059326172 27.47309303283691 159.1124420166016 22.14992713928223 154.5403442382813 17.57795143127441 C 149.9682769775391 13.00597476959229 144.6449890136719 9.416808128356934 138.7183990478516 6.910117626190186 C 132.5840454101563 4.31554651260376 126.0660171508789 2.999998807907104 119.3453979492188 2.999998807907104 L 52.77239608764648 2.999998807907104 C 46.0519905090332 2.999998807907104 39.53415679931641 4.31554651260376 33.39994430541992 6.910093784332275 C 27.47344398498535 9.416808128356934 22.15025329589844 13.00597476959229 17.57825469970703 17.57792663574219 C 13.00620651245117 22.14992713928223 9.41696834564209 27.47309303283691 6.910206317901611 33.39959335327148 C 4.315587043762207 39.53387832641602 2.999991893768311 46.05183029174805 2.999991893768311 52.77240371704102 C 2.999991893768311 59.49297332763672 4.315587043762207 66.01092529296875 6.910206317901611 72.14521026611328 C 9.41696834564209 78.07171630859375 13.00620651245117 83.39488220214844 17.57825469970703 87.96688079833984 C 22.15025329589844 92.53883361816406 27.47344398498535 96.12799835205078 33.39994430541992 98.63471221923828 C 39.53415679931641 101.2292633056641 46.0519905090332 102.544807434082 52.77239608764648 102.544807434082 L 119.3453979492188 102.544807434082 C 123.4863739013672 102.544807434082 127.6015853881836 102.03564453125 131.5767364501953 101.0314712524414 L 132.8916625976563 100.6992874145508 L 134.0097045898438 101.4670257568359 L 147.1092529296875 110.4621963500977 M 151.9739990234375 117.4419021606445 L 132.3114929199219 103.9400939941406 C 128.1630859375 104.9880447387695 123.8193511962891 105.544807434082 119.3453979492188 105.544807434082 L 52.77239608764648 105.544807434082 C 23.62770652770996 105.544807434082 -8.082798558461946e-06 81.91799926757813 -8.082798558461946e-06 52.77240371704102 C -8.082798558461946e-06 23.62680816650391 23.62770652770996 -1.30063017422799e-06 52.77239608764648 -1.30063017422799e-06 L 119.3453979492188 -1.30063017422799e-06 C 148.4909973144531 -1.30063017422799e-06 172.1187133789063 23.62680816650391 172.1187133789063 52.77240371704102 C 172.1187133789063 71.78713989257813 162.0631103515625 88.45218658447266 146.9784851074219 97.74063873291016 L 151.9739990234375 117.4419021606445 Z" stroke="none" fill="#262626"/>
    </g>
  </g>
</svg>
