<svg xmlns="http://www.w3.org/2000/svg" xmlns:xlink="http://www.w3.org/1999/xlink" width="201.5" height="138.933" viewBox="0 0 201.5 138.933">
  <defs>
    <filter id="talk4" x="0" y="0" width="201.5" height="138.933" filterUnits="userSpaceOnUse">
      <feOffset dy="3" input="SourceAlpha"/>
      <feGaussianBlur stdDeviation="3" result="blur"/>
      <feFlood flood-opacity="0.161"/>
      <feComposite operator="in" in2="blur"/>
      <feComposite in="SourceGraphic"/>
    </filter>
  </defs>
  <g transform="matrix(1, 0, 0, 1, 0, 0)" filter="url(#talk4)">
    <g id="talk4-2" data-name="talk4" transform="translate(192.5 126.93) rotate(180)" fill="#ff4b75">
      <path d="M 129.1590118408203 119.4330062866211 L 54.34110260009766 119.4330062866211 C 47.20700454711914 119.4330062866211 40.28707885742188 118.0361251831055 33.77357864379883 115.2811660766602 C 27.48145866394043 112.6198577880859 21.83024406433105 108.8096694946289 16.9769344329834 103.9564056396484 C 12.12357711791992 99.10309600830078 8.313315391540527 93.451904296875 5.651957988739014 87.15981292724609 C 2.896934270858765 80.64621734619141 1.500005841255188 73.7261962890625 1.500005841255188 66.59191131591797 C 1.500005841255188 59.45783615112305 2.896910667419434 52.53793334960938 5.651957988739014 46.02438354492188 C 8.313315391540527 39.7322883605957 12.12360095977783 34.08109664916992 16.9769344329834 29.22774124145508 C 21.83029174804688 24.37440872192383 27.48148155212402 20.56412124633789 33.77357864379883 17.90276527404785 C 40.28712463378906 15.14771747589111 47.20703125 13.75081253051758 54.34110260009766 13.75081253051758 L 129.1590118408203 13.75081253051758 C 133.1940460205078 13.75081253051758 137.2149353027344 14.20731258392334 141.1099853515625 15.10766983032227 L 141.7389068603516 15.25302696228027 L 142.27685546875 14.89626502990723 L 159.5733947753906 3.424833059310913 L 155.3716735839844 19.42862129211426 L 155.0843353271484 20.52307510375977 L 156.0577850341797 21.09995460510254 C 163.8161926269531 25.69769287109375 170.3157958984375 32.24659729003906 174.8539123535156 40.03866958618164 C 177.1526794433594 43.98574066162109 178.9280548095703 48.21526336669922 180.1307220458984 52.60976409912109 C 181.3711547851563 57.14221572875977 182.0001068115234 61.84647750854492 182.0001068115234 66.59191131591797 C 182.0001068115234 73.7261962890625 180.6031799316406 80.64621734619141 177.84814453125 87.15981292724609 C 175.1867980957031 93.451904296875 171.3765258789063 99.10309600830078 166.5231781005859 103.9564056396484 C 161.6698608398438 108.8096694946289 156.0186462402344 112.6198577880859 149.7265319824219 115.2811660766602 C 143.2130279541016 118.0361251831055 136.2931060791016 119.4330062866211 129.1590118408203 119.4330062866211 Z" stroke="none"/>
      <path d="M 129.1589965820313 117.9330062866211 C 136.0912780761719 117.9330062866211 142.8146057128906 116.5760040283203 149.1422271728516 113.8996810913086 C 155.2555236816406 111.3139801025391 160.7464752197266 107.6117248535156 165.4625244140625 102.8957290649414 C 170.1786041259766 98.17970275878906 173.8809356689453 92.68878173828125 176.4666595458984 86.57547760009766 C 179.1430511474609 80.24777984619141 180.5001068115234 73.52435302734375 180.5001068115234 66.59190368652344 C 180.5001068115234 61.98022842407227 179.8890533447266 57.4091796875 178.6839294433594 53.00572967529297 C 177.5156555175781 48.73685455322266 175.7909240722656 44.62810134887695 173.5577087402344 40.7935791015625 C 169.1479339599609 33.22185134887695 162.8321228027344 26.85812759399414 155.2930603027344 22.39037895202637 L 153.3461608886719 21.23662757873535 L 153.9208526611328 19.04770278930664 L 157.1233978271484 6.849624156951904 L 143.1059265136719 16.14632797241211 L 142.030029296875 16.85987854003906 L 140.7721557617188 16.56912803649902 C 136.9877319335938 15.6943531036377 133.0804748535156 15.25080299377441 129.1589965820313 15.25080299377441 L 54.34110260009766 15.25080299377441 C 47.40887832641602 15.25080299377441 40.68555450439453 16.60785293579102 34.35792922973633 19.28425407409668 C 28.24462890625 21.87000274658203 22.7536792755127 25.57232856750488 18.0376033782959 30.28840255737305 C 13.32152843475342 35.00447845458984 9.619203567504883 40.49542999267578 7.033453464508057 46.60872650146484 C 4.357053279876709 52.93635177612305 3.000003337860107 59.6596794128418 3.000003337860107 66.59190368652344 C 3.000003337860107 73.52435302734375 4.357053279876709 80.24777984619141 7.033453464508057 86.57547760009766 C 9.619178771972656 92.68878173828125 13.32150363922119 98.17970275878906 18.03757858276367 102.8957290649414 C 22.75362777709961 107.6117248535156 28.24457931518555 111.3139801025391 34.35787963867188 113.8996810913086 C 40.68550491333008 116.5760040283203 47.40882873535156 117.9330062866211 54.34110260009766 117.9330062866211 L 129.1589965820313 117.9330062866211 M 129.1589965820313 120.9330062866211 L 54.34110260009766 120.9330062866211 C 24.32970428466797 120.9330062866211 3.405761617614189e-06 96.60420227050781 3.405761617614189e-06 66.59190368652344 C 3.405761617614189e-06 36.58050155639648 24.32970428466797 12.25080299377441 54.34110260009766 12.25080299377441 L 129.1589965820313 12.25080299377441 C 133.3848571777344 12.25080299377441 137.4992980957031 12.7335033416748 141.4477996826172 13.64620304107666 L 162.0234069824219 3.143310550512979e-06 L 156.822509765625 19.80952835083008 C 172.7926330566406 29.27365303039551 183.5001068115234 46.68260192871094 183.5001068115234 66.59190368652344 C 183.5001068115234 96.60420227050781 159.17041015625 120.9330062866211 129.1589965820313 120.9330062866211 Z" stroke="none" fill="#262626"/>
    </g>
  </g>
</svg>
