<svg xmlns="http://www.w3.org/2000/svg" xmlns:xlink="http://www.w3.org/1999/xlink" width="190.119" height="121" viewBox="0 0 190.119 121">
  <defs>
    <filter id="talk3" x="0" y="0" width="190.119" height="121" filterUnits="userSpaceOnUse">
      <feOffset dy="3" input="SourceAlpha"/>
      <feGaussianBlur stdDeviation="3" result="blur"/>
      <feFlood flood-opacity="0.161"/>
      <feComposite operator="in" in2="blur"/>
      <feComposite in="SourceGraphic"/>
    </filter>
  </defs>
  <g transform="matrix(1, 0, 0, 1, 0, 0)" filter="url(#talk3)">
    <g id="talk3-2" data-name="talk3" transform="translate(9 6)" fill="#ff4b75">
      <path d="M 149.4704284667969 99.74087524414063 L 134.3518676757813 90.63611602783203 L 133.8763275146484 90.3497314453125 L 133.3289184570313 90.44194030761719 C 130.8704681396484 90.85597991943359 128.3492279052734 91.06591796875 125.8353042602539 91.06591796875 L 46.28339385986328 91.06591796875 C 40.23696136474609 91.06591796875 34.37221145629883 89.88207244873047 28.85205268859863 87.54725646972656 C 23.51946258544922 85.29175567626953 18.7299861907959 82.06253051757813 14.61668968200684 77.94923400878906 C 10.50339412689209 73.83591461181641 7.274144649505615 69.04646301269531 5.018667221069336 63.71384811401367 C 2.683849096298218 58.19368743896484 1.500008106231689 52.32893753051758 1.500008106231689 46.28250503540039 C 1.500008106231689 40.23630142211914 2.683849096298218 34.37171173095703 5.018667221069336 28.85168838500977 C 7.274144649505615 23.51921081542969 10.50339412689209 18.72982406616211 14.61668968200684 14.61657428741455 C 18.7299861907959 10.50332450866699 23.51946258544922 7.274119853973389 28.85205268859863 5.018642425537109 C 34.37223434448242 2.683847188949585 40.23698425292969 1.500006198883057 46.28339385986328 1.500006198883057 L 125.8353042602539 1.500006198883057 C 131.8817291259766 1.500006198883057 137.7464904785156 2.683847188949585 143.2666473388672 5.018642425537109 C 148.5992584228516 7.274119853973389 153.3887176513672 10.50332450866699 157.5020294189453 14.61657428741455 C 161.6153259277344 18.72982406616211 164.8445587158203 23.51921081542969 167.1000366210938 28.85168838500977 C 169.4348449707031 34.37171173095703 170.6186828613281 40.23630142211914 170.6186828613281 46.28250503540039 C 170.6186828613281 54.58589172363281 168.3295593261719 62.69284820556641 163.9987640380859 69.72693634033203 C 159.7870941162109 76.56755065917969 153.8108978271484 82.16373443603516 146.7162322998047 85.91050720214844 L 145.6366271972656 86.48064422607422 L 145.9757385253906 87.65350341796875 L 149.4704284667969 99.74087524414063 Z" stroke="none"/>
      <path d="M 146.966796875 96.48213958740234 L 144.5347290039063 88.07013702392578 L 143.8565368652344 85.72439575195313 L 146.0157470703125 84.58411407470703 C 152.8735198974609 80.96247100830078 158.6502532958984 75.55299377441406 162.7214660644531 68.94051361083984 C 166.9065856933594 62.14303970336914 169.1187133789063 54.30804061889648 169.1187133789063 46.28249359130859 C 169.1187133789063 40.43813323974609 167.9747314453125 34.77016067504883 165.7185363769531 29.43601608276367 C 163.5386810302734 24.28232574462891 160.4174041748047 19.65320587158203 156.4413757324219 15.67725372314453 C 152.4653472900391 11.70125389099121 147.8361358642578 8.579992294311523 142.6823272705078 6.400158882141113 C 137.3480377197266 4.143968105316162 131.6799011230469 2.99999213218689 125.8353042602539 2.99999213218689 L 46.28339767456055 2.99999213218689 C 40.43880081176758 2.99999213218689 34.77066040039063 4.143968105316162 29.43637275695801 6.400158882141113 C 24.28256416320801 8.579992294311523 19.65334892272949 11.70125389099121 15.67732524871826 15.67725372314453 C 11.70130157470703 19.65320587158203 8.580016136169434 24.28232574462891 6.400158405303955 29.43601608276367 C 4.143968105316162 34.77016067504883 2.999991893768311 40.43813323974609 2.999991893768311 46.28249359130859 C 2.999991893768311 52.1270866394043 4.143968105316162 57.79525375366211 6.400158405303955 63.1295166015625 C 8.580016136169434 68.2833251953125 11.70130157470703 72.91253662109375 15.67732524871826 76.88856506347656 C 19.65334892272949 80.86458587646484 24.28256416320801 83.98587036132813 29.43637275695801 86.16573333740234 C 34.77063369750977 88.42192077636719 40.43880081176758 89.56589508056641 46.28339767456055 89.56589508056641 L 125.8353042602539 89.56589508056641 C 128.2660675048828 89.56589508056641 130.7034454345703 89.36296844482422 133.0797729492188 88.96275329589844 L 134.1746063232422 88.77835083007813 L 135.1257019042969 89.35113525390625 L 146.966796875 96.48213958740234 M 151.9739990234375 102.9996109008789 L 133.5780181884766 91.92108917236328 C 131.0603485107422 92.34510803222656 128.4735412597656 92.56589508056641 125.8353042602539 92.56589508056641 L 46.28339767456055 92.56589508056641 C 20.72158622741699 92.56589508056641 -8.082798558461946e-06 71.84429931640625 -8.082798558461946e-06 46.28249359130859 C -8.082798558461946e-06 20.72161102294922 20.72158622741699 -7.888067557360046e-06 46.28339767456055 -7.888067557360046e-06 L 125.8353042602539 -7.888067557360046e-06 C 151.3971099853516 -7.888067557360046e-06 172.1187133789063 20.72161102294922 172.1187133789063 46.28249359130859 C 172.1187133789063 64.04970550537109 162.1057586669922 79.4794921875 147.4167022705078 87.23690032958984 L 151.9739990234375 102.9996109008789 Z" stroke="none" fill="#262626"/>
    </g>
  </g>
</svg>
