<svg xmlns="http://www.w3.org/2000/svg" xmlns:xlink="http://www.w3.org/1999/xlink" width="180" height="129.85" viewBox="0 0 180 129.85">
  <defs>
    <filter id="talk1" x="0" y="0" width="180" height="129.85" filterUnits="userSpaceOnUse">
      <feOffset dy="3" input="SourceAlpha"/>
      <feGaussianBlur stdDeviation="3" result="blur"/>
      <feFlood flood-opacity="0.161"/>
      <feComposite operator="in" in2="blur"/>
      <feComposite in="SourceGraphic"/>
    </filter>
  </defs>
  <g transform="matrix(1, 0, 0, 1, 0, 0)" filter="url(#talk1)">
    <g id="talk1-2" data-name="talk1" transform="translate(4059 6)" fill="#ff4b75">
      <path d="M -3909.38671875 108.3378143310547 L -3924.730712890625 97.67624664306641 L -3925.296875 97.282958984375 L -3925.9638671875 97.45626831054688 C -3929.956787109375 98.49354553222656 -3934.09375 99.01948547363281 -3938.259521484375 99.01948547363281 L -3999.740478515625 99.01948547363281 C -4006.323486328125 99.01948547363281 -4012.708984375 97.73048400878906 -4018.71923828125 95.18826293945313 C -4024.525390625 92.73246002197266 -4029.740234375 89.21646118164063 -4034.21875 84.73793792724609 C -4038.697265625 80.25941467285156 -4042.213134765625 75.044677734375 -4044.6689453125 69.23860931396484 C -4047.211181640625 63.22824478149414 -4048.500244140625 56.84283065795898 -4048.500244140625 50.25974273681641 C -4048.500244140625 43.67665481567383 -4047.211181640625 37.29124450683594 -4044.6689453125 31.28087425231934 C -4042.213134765625 25.47480773925781 -4038.697265625 20.26006889343262 -4034.21875 15.78154754638672 C -4029.740234375 11.30302619934082 -4024.525390625 7.787025928497314 -4018.71923828125 5.331221580505371 C -4012.708984375 2.789004325866699 -4006.323486328125 1.500004291534424 -3999.740478515625 1.500004291534424 L -3938.259521484375 1.500004291534424 C -3931.676513671875 1.500004291534424 -3925.291015625 2.789004325866699 -3919.28076171875 5.331221580505371 C -3913.474609375 7.787025928497314 -3908.259765625 11.30302619934082 -3903.78125 15.78154754638672 C -3899.302734375 20.26006889343262 -3895.786865234375 25.47480773925781 -3893.3310546875 31.28087425231934 C -3890.788818359375 37.29124450683594 -3889.499755859375 43.67665481567383 -3889.499755859375 50.25974273681641 C -3889.499755859375 54.54241561889648 -3890.055419921875 58.79132843017578 -3891.15087890625 62.88846206665039 C -3892.213623046875 66.86222076416016 -3893.783935546875 70.69545745849609 -3895.818359375 74.28167724609375 C -3899.827880859375 81.34952545166016 -3905.59423828125 87.36006927490234 -3912.493896484375 91.66352844238281 L -3913.42041015625 92.24150085449219 L -3913.155029296875 93.30087280273438 L -3909.38671875 108.3378143310547 Z" stroke="none"/>
      <path d="M -3911.813232421875 104.8251113891602 L -3914.60986328125 93.66551971435547 L -3915.140869140625 91.54674530029297 L -3913.28759765625 90.39078521728516 C -3906.599365234375 86.21913146972656 -3901.009765625 80.39276885986328 -3897.123046875 73.54156494140625 C -3895.151611328125 70.06617736816406 -3893.629638671875 66.35158538818359 -3892.60009765625 62.50094604492188 C -3891.5380859375 58.53017425537109 -3890.999755859375 54.41162872314453 -3890.999755859375 50.25974273681641 C -3890.999755859375 43.87851715087891 -3892.248779296875 37.689697265625 -3894.71240234375 31.86522102355957 C -3897.0927734375 26.23792457580566 -3900.500732421875 21.18346977233887 -3904.842041015625 16.84219741821289 C -3909.18310546875 12.50094795227051 -3914.23779296875 9.092902183532715 -3919.864990234375 6.71272087097168 C -3925.689453125 4.249129772186279 -3931.878173828125 2.999993324279785 -3938.259521484375 2.999993324279785 L -3999.740478515625 2.999993324279785 C -4006.121826171875 2.999993324279785 -4012.310546875 4.249129772186279 -4018.135009765625 6.71272087097168 C -4023.76220703125 9.092902183532715 -4028.81689453125 12.50094795227051 -4033.157958984375 16.84219741821289 C -4037.499267578125 21.18346977233887 -4040.9072265625 26.23792457580566 -4043.28759765625 31.86522102355957 C -4045.751220703125 37.689697265625 -4047.000244140625 43.87851715087891 -4047.000244140625 50.25974273681641 C -4047.000244140625 56.64099502563477 -4045.751220703125 62.82981109619141 -4043.28759765625 68.65426635742188 C -4040.9072265625 74.28156280517578 -4037.499267578125 79.33603668212891 -4033.157958984375 83.67729187011719 C -4028.81689453125 88.01853942871094 -4023.76220703125 91.42660522460938 -4018.135009765625 93.8067626953125 C -4012.310546875 96.27035522460938 -4006.121826171875 97.51949310302734 -3999.740478515625 97.51949310302734 L -3938.259521484375 97.51949310302734 C -3934.220947265625 97.51949310302734 -3930.2109375 97.00974273681641 -3926.341064453125 96.00442504882813 L -3925.0068359375 95.65785980224609 L -3923.874755859375 96.44440460205078 L -3911.813232421875 104.8251113891602 M -3906.9599609375 111.8504943847656 L -3925.586669921875 98.90805816650391 C -3929.635498046875 99.95985412597656 -3933.8818359375 100.5194931030273 -3938.259521484375 100.5194931030273 L -3999.740478515625 100.5194931030273 C -4027.497802734375 100.5194931030273 -4050.000244140625 78.01705932617188 -4050.000244140625 50.25974273681641 C -4050.000244140625 22.5024471282959 -4027.497802734375 -6.622314231208293e-06 -3999.740478515625 -6.622314231208293e-06 L -3938.259521484375 -6.622314231208293e-06 C -3910.502197265625 -6.622314231208293e-06 -3887.999755859375 22.5024471282959 -3887.999755859375 50.25974273681641 C -3887.999755859375 68.26540374755859 -3897.47021484375 84.06081390380859 -3911.699951171875 92.93624114990234 L -3906.9599609375 111.8504943847656 Z" stroke="none" fill="#262626"/>
    </g>
  </g>
</svg>
