<svg xmlns="http://www.w3.org/2000/svg" xmlns:xlink="http://www.w3.org/1999/xlink" width="46.35" height="909" viewBox="0 0 46.35 909">
  <defs>
    <clipPath id="clip-path">
      <rect id="Rectangle_89" data-name="Rectangle 89" width="46.35" height="899.932" fill="none"/>
    </clipPath>
  </defs>
  <g id="zeebro" transform="translate(0 -800)">
    <rect id="Rectangle_3" data-name="Rectangle 3" width="44.463" height="902.289" transform="translate(1.053 800)"/>
    <g id="Repeat_Grid_1" data-name="Repeat Grid 1" transform="translate(0 809.068)" clip-path="url(#clip-path)">
      <g id="Group_33" data-name="Group 33">
        <path id="Path_1" data-name="Path 1" d="M0,30.687,68.4,0V30.687L0,62.027Z" fill="#ffdf00"/>
      </g>
      <g id="Group_34" data-name="Group 34" transform="translate(0 80.707)">
        <path id="Path_1-2" data-name="Path 1" d="M0,30.687,68.4,0V30.687L0,62.027Z" fill="#ffdf00"/>
      </g>
      <g id="Group_35" data-name="Group 35" transform="translate(0 161.415)">
        <path id="Path_1-3" data-name="Path 1" d="M0,30.687,68.4,0V30.687L0,62.027Z" fill="#ffdf00"/>
      </g>
      <g id="Group_36" data-name="Group 36" transform="translate(0 242.122)">
        <path id="Path_1-4" data-name="Path 1" d="M0,30.687,68.4,0V30.687L0,62.027Z" fill="#ffdf00"/>
      </g>
      <g id="Group_37" data-name="Group 37" transform="translate(0 322.829)">
        <path id="Path_1-5" data-name="Path 1" d="M0,30.687,68.4,0V30.687L0,62.027Z" fill="#ffdf00"/>
      </g>
      <g id="Group_38" data-name="Group 38" transform="translate(0 403.536)">
        <path id="Path_1-6" data-name="Path 1" d="M0,30.687,68.4,0V30.687L0,62.027Z" fill="#ffdf00"/>
      </g>
      <g id="Group_39" data-name="Group 39" transform="translate(0 484.244)">
        <path id="Path_1-7" data-name="Path 1" d="M0,30.687,68.4,0V30.687L0,62.027Z" fill="#ffdf00"/>
      </g>
      <g id="Group_40" data-name="Group 40" transform="translate(0 564.951)">
        <path id="Path_1-8" data-name="Path 1" d="M0,30.687,68.4,0V30.687L0,62.027Z" fill="#ffdf00"/>
      </g>
      <g id="Group_41" data-name="Group 41" transform="translate(0 645.658)">
        <path id="Path_1-9" data-name="Path 1" d="M0,30.687,68.4,0V30.687L0,62.027Z" fill="#ffdf00"/>
      </g>
      <g id="Group_42" data-name="Group 42" transform="translate(0 726.366)">
        <path id="Path_1-10" data-name="Path 1" d="M0,30.687,68.4,0V30.687L0,62.027Z" fill="#ffdf00"/>
      </g>
      <g id="Group_43" data-name="Group 43" transform="translate(0 807.073)">
        <path id="Path_1-11" data-name="Path 1" d="M0,30.687,68.4,0V30.687L0,62.027Z" fill="#ffdf00"/>
      </g>
      <g id="Group_44" data-name="Group 44" transform="translate(0 887.78)">
        <path id="Path_1-12" data-name="Path 1" d="M0,30.687,68.4,0V30.687L0,62.027Z" fill="#ffdf00"/>
      </g>
    </g>
  </g>
</svg>
