<svg xmlns="http://www.w3.org/2000/svg" viewBox="0 0 202.66 105.87"><defs><style>.cls-1{fill:#f5ad18;}.cls-2{fill:#4e6a7f;}.cls-3{fill:#fffffa;}</style></defs><title>資產 1</title><g id="圖層_2" data-name="圖層 2"><g id="圖層_1-2" data-name="圖層 1"><g id="_群組_" data-name="&lt;群組&gt;"><g id="_群組_2" data-name="&lt;群組&gt;"><path id="_路徑_" data-name="&lt;路徑&gt;" class="cls-1" d="M175.48,15.38C171.05,6.85,163.7,2.73,155,.94a47.67,47.67,0,0,0-20.75.44L119,5A76,76,0,0,1,83.64,5L68.38,1.38A47.67,47.67,0,0,0,47.63.94C39,2.73,31.6,6.85,27.18,15.38,8.9,50.61-17.43,100,16.17,104.91c45.49,6.62,46.44-22.7,51-40.89h68.33c4.55,18.19,5.5,47.51,51,40.89C220.09,100,193.76,50.61,175.48,15.38Z"/><circle id="_路徑_2" data-name="&lt;路徑&gt;" class="cls-2" cx="43.83" cy="39.69" r="18.12"/><g id="_群組_3" data-name="&lt;群組&gt;"><g id="_群組_4" data-name="&lt;群組&gt;"><polygon id="_路徑_3" data-name="&lt;路徑&gt;" class="cls-3" points="47.62 27.71 40.05 27.71 40.05 34.64 43.83 36.77 47.62 34.64 47.62 27.71"/><polygon id="_路徑_4" data-name="&lt;路徑&gt;" class="cls-3" points="40.05 51.67 47.62 51.67 47.62 44.74 43.83 42.62 40.05 44.74 40.05 51.67"/></g><g id="_群組_5" data-name="&lt;群組&gt;"><polygon id="_路徑_5" data-name="&lt;路徑&gt;" class="cls-3" points="31.85 35.91 31.85 43.48 38.78 43.48 40.91 39.69 38.78 35.91 31.85 35.91"/><polygon id="_路徑_6" data-name="&lt;路徑&gt;" class="cls-3" points="55.81 43.48 55.81 35.91 48.88 35.91 46.76 39.69 48.88 43.48 55.81 43.48"/></g></g><g id="_群組_6" data-name="&lt;群組&gt;"><circle id="_路徑_7" data-name="&lt;路徑&gt;" class="cls-2" cx="157.09" cy="26.21" r="6.03"/><circle id="_路徑_8" data-name="&lt;路徑&gt;" class="cls-2" cx="157.09" cy="51.78" r="6.03"/></g><g id="_群組_7" data-name="&lt;群組&gt;"><circle id="_路徑_9" data-name="&lt;路徑&gt;" class="cls-3" cx="144.31" cy="38.99" r="6.03"/><circle id="_路徑_10" data-name="&lt;路徑&gt;" class="cls-3" cx="169.88" cy="38.99" r="6.03"/></g><rect id="_矩形_" data-name="&lt;矩形&gt;" class="cls-2" x="76.92" y="50.21" width="16.99" height="5.89"/><rect id="_矩形_2" data-name="&lt;矩形&gt;" class="cls-2" x="103.74" y="50.21" width="16.99" height="5.89"/></g></g></g></g></svg>