<svg xmlns="http://www.w3.org/2000/svg" viewBox="0 0 127.37 207.92"><defs><style>.cls-1{fill:#fffffa;}.cls-2{fill:#4e6a7f;}.cls-3{fill:#ecba52;}</style></defs><title>資產 3</title><g id="圖層_2" data-name="圖層 2"><g id="圖層_1-2" data-name="圖層 1"><g id="_群組_" data-name="&lt;群組&gt;"><g id="_群組_2" data-name="&lt;群組&gt;"><circle id="_路徑_" data-name="&lt;路徑&gt;" class="cls-1" cx="46.69" cy="79.34" r="34.02" transform="matrix(0.87, -0.5, 0.5, 0.87, -33.41, 33.97)"/><path id="_路徑_2" data-name="&lt;路徑&gt;" class="cls-2" d="M33.25,103.86a2.69,2.69,0,0,1-2.83-.09A29.37,29.37,0,0,1,17.58,75.63,29.56,29.56,0,0,1,25.49,59a2.69,2.69,0,1,1,3.88,3.72,24.15,24.15,0,0,0-6.46,13.55,24,24,0,0,0,10.49,23,2.69,2.69,0,0,1-.14,4.57Z"/><rect id="_矩形_" data-name="&lt;矩形&gt;" class="cls-2" x="69.39" y="110.63" width="14.91" height="41.9" transform="translate(-55.49 56.05) rotate(-30)"/><path id="_路徑_3" data-name="&lt;路徑&gt;" class="cls-2" d="M72.23,149.86l31.18,54c2,3.4,5.67,5,8.23,3.49l13.44-7.76c2.56-1.48,3.05-5.47,1.09-8.87L95,136.72Z"/><ellipse id="_路徑_4" data-name="&lt;路徑&gt;" class="cls-2" cx="39.07" cy="104.33" rx="2.91" ry="2.67" transform="translate(-46.93 33.51) rotate(-30)"/><path id="_複合路徑_" data-name="&lt;複合路徑&gt;" class="cls-2" d="M23.35,38.92A46.68,46.68,0,1,0,87.11,56,46.68,46.68,0,0,0,23.35,38.92ZM63.7,108.8A34,34,0,1,1,76.15,62.33,34,34,0,0,1,63.7,108.8Z"/><polygon id="_路徑_5" data-name="&lt;路徑&gt;" class="cls-3" points="60.3 63.41 46.9 62.23 30.36 71.78 71.83 80.01 89.03 0 60.3 63.41"/></g></g></g></g></svg>