<svg xmlns="http://www.w3.org/2000/svg" viewBox="0 0 177.75 177.75"><defs><style>.cls-1{fill:#4e6a7f;}.cls-2{fill:#fffffa;}.cls-3{fill:#ec7435;}</style></defs><title>資產 4</title><g id="圖層_2" data-name="圖層 2"><g id="圖層_1-2" data-name="圖層 1"><g id="_群組_" data-name="&lt;群組&gt;"><g id="_群組_2" data-name="&lt;群組&gt;"><path id="_複合路徑_" data-name="&lt;複合路徑&gt;" class="cls-1" d="M88.87,0a88.87,88.87,0,1,0,88.87,88.87A88.87,88.87,0,0,0,88.87,0Zm0,157.74a68.87,68.87,0,1,1,68.87-68.87A68.87,68.87,0,0,1,88.87,157.74Z"/><circle id="_路徑_" data-name="&lt;路徑&gt;" class="cls-2" cx="88.87" cy="88.87" r="68.87"/><g id="_群組_3" data-name="&lt;群組&gt;"><rect id="_矩形_" data-name="&lt;矩形&gt;" class="cls-1" x="86.06" y="24.49" width="5.63" height="17.12"/><rect id="_矩形_2" data-name="&lt;矩形&gt;" class="cls-1" x="86.06" y="136.14" width="5.63" height="17.12"/></g><g id="_群組_4" data-name="&lt;群組&gt;"><rect id="_矩形_3" data-name="&lt;矩形&gt;" class="cls-1" x="58.15" y="31.97" width="5.63" height="17.12" transform="translate(-12.1 35.91) rotate(-30)"/><rect id="_矩形_4" data-name="&lt;矩形&gt;" class="cls-1" x="113.97" y="128.66" width="5.63" height="17.12" transform="translate(-52.96 76.77) rotate(-30)"/></g><g id="_群組_5" data-name="&lt;群組&gt;"><rect id="_矩形_5" data-name="&lt;矩形&gt;" class="cls-1" x="37.71" y="52.4" width="5.63" height="17.12" transform="translate(-32.53 65.58) rotate(-60)"/><rect id="_矩形_6" data-name="&lt;矩形&gt;" class="cls-1" x="134.4" y="108.23" width="5.63" height="17.12" transform="translate(-32.53 177.23) rotate(-60)"/></g><g id="_群組_6" data-name="&lt;群組&gt;"><rect id="_矩形_7" data-name="&lt;矩形&gt;" class="cls-1" x="30.23" y="80.32" width="5.63" height="17.12" transform="translate(-55.82 121.93) rotate(-90)"/><rect id="_矩形_8" data-name="&lt;矩形&gt;" class="cls-1" x="141.88" y="80.32" width="5.63" height="17.12" transform="translate(55.82 233.57) rotate(-90)"/></g><g id="_群組_7" data-name="&lt;群組&gt;"><rect id="_矩形_9" data-name="&lt;矩形&gt;" class="cls-1" x="37.71" y="108.23" width="5.63" height="17.12" transform="matrix(-0.5, -0.87, 0.87, -0.5, -40.34, 210.28)"/><rect id="_矩形_10" data-name="&lt;矩形&gt;" class="cls-1" x="134.4" y="52.4" width="5.63" height="17.12" transform="translate(153.03 210.28) rotate(-120)"/></g><g id="_群組_8" data-name="&lt;群組&gt;"><rect id="_矩形_11" data-name="&lt;矩形&gt;" class="cls-1" x="58.15" y="128.66" width="5.63" height="17.12" transform="matrix(-0.87, -0.5, 0.5, -0.87, 45.15, 286.53)"/><rect id="_矩形_12" data-name="&lt;矩形&gt;" class="cls-1" x="113.97" y="31.97" width="5.63" height="17.12" transform="translate(197.66 134.02) rotate(-150)"/></g><g id="_群組_9" data-name="&lt;群組&gt;"><circle id="_路徑_2" data-name="&lt;路徑&gt;" class="cls-1" cx="88.87" cy="88.87" r="9.29"/><circle id="_路徑_3" data-name="&lt;路徑&gt;" class="cls-2" cx="88.87" cy="88.87" r="3.96"/></g><path id="_路徑_4" data-name="&lt;路徑&gt;" class="cls-1" d="M80.72,88l-20,11.1a4.9,4.9,0,0,0,4.76,8.56l20-11.1Z"/><path id="_路徑_5" data-name="&lt;路徑&gt;" class="cls-1" d="M92.83,82,78.77,33.26A4.9,4.9,0,0,0,69.36,36L83.42,84.76Z"/><rect id="_矩形_13" data-name="&lt;矩形&gt;" class="cls-3" x="101.33" y="81.53" width="3" height="44.42" rx="0.88" ry="0.88" transform="translate(-43.18 99.51) rotate(-43.59)"/></g></g></g></g></svg>