<svg xmlns="http://www.w3.org/2000/svg" viewBox="0 0 165.29 187.45"><defs><style>.cls-1{fill:#4e6a7f;}.cls-2{fill:#fffffa;}.cls-3{fill:#ec7435;}.cls-4{fill:#c45321;}</style></defs><title>資產 2</title><g id="圖層_2" data-name="圖層 2"><g id="圖層_1-2" data-name="圖層 1"><g id="_群組_" data-name="&lt;群組&gt;"><g id="_群組_2" data-name="&lt;群組&gt;"><path id="_路徑_" data-name="&lt;路徑&gt;" class="cls-1" d="M164.61,83.13a9.39,9.39,0,0,0-9.17-7.36H8.94A9.39,9.39,0,0,0,.67,80.69l82.48,66.38Z"/><polygon id="_路徑_2" data-name="&lt;路徑&gt;" class="cls-1" points="82.64 83.72 164.16 80.69 82.64 0.45 82.64 0 82.42 0.22 82.19 0 82.19 0.45 0.68 80.69 82.19 83.72 82.19 83.73 82.42 83.72 82.64 83.73 82.64 83.72"/></g><rect id="_矩形_" data-name="&lt;矩形&gt;" class="cls-2" x="18.33" y="41.87" width="128.63" height="123.79"/><g id="_群組_3" data-name="&lt;群組&gt;"><rect id="_矩形_2" data-name="&lt;矩形&gt;" class="cls-1" x="40.53" y="66.87" width="84.22" height="5.34"/><rect id="_路徑_3" data-name="&lt;路徑&gt;" class="cls-1" x="40.53" y="86.69" width="84.22" height="5.34"/></g><g id="_群組_4" data-name="&lt;群組&gt;"><path id="_路徑_4" data-name="&lt;路徑&gt;" class="cls-3" d="M83.61,131.75,1.13,80.69A9.35,9.35,0,0,0,0,85.16v92.89a9.36,9.36,0,0,0,2.79,6.68h0Z"/><path id="_路徑_5" data-name="&lt;路徑&gt;" class="cls-4" d="M2.79,184.73h0a9.36,9.36,0,0,0,6.61,2.72h146.5a9.36,9.36,0,0,0,6.61-2.72L83.61,131.64Z"/><path id="_路徑_6" data-name="&lt;路徑&gt;" class="cls-3" d="M165.06,83.13,83.61,131.75l78.89,53a9.36,9.36,0,0,0,2.79-6.68V85.16A9.42,9.42,0,0,0,165.06,83.13Z"/></g></g></g></g></svg>